<svg width="23" height="22" viewBox="0 0 23 22" fill="none" xmlns="http://www.w3.org/2000/svg">
<g clip-path="url(#clip0)">
<path d="M9.26074 20.3497C9.26074 20.9943 8.75114 21.4997 8.14355 21.4997C7.53597 21.4997 7.02637 20.9943 7.02637 20.3497C7.02637 19.7051 7.53597 19.1997 8.14355 19.1997C8.75114 19.1997 9.26074 19.7051 9.26074 20.3497Z" fill="#BDBDBD" stroke="white"/>
<path d="M19.0859 20.3497C19.0859 20.9943 18.5763 21.4997 17.9688 21.4997C17.3612 21.4997 16.8516 20.9943 16.8516 20.3497C16.8516 19.7051 17.3612 19.1997 17.9688 19.1997C18.5763 19.1997 19.0859 19.7051 19.0859 20.3497Z" fill="#BDBDBD" stroke="white"/>
<path d="M21.9477 2.7822L21.9475 2.7823L21.9559 2.79232C21.9783 2.81903 21.995 2.85133 22.0041 2.88699C22.0128 2.92142 22.014 2.95752 22.0076 2.99255L19.7306 13.2527L19.7305 13.2533C19.7184 13.3081 19.6884 13.3549 19.6482 13.3869C19.6083 13.4187 19.5603 13.4344 19.5124 13.4332L19.5124 13.433H19.5H8.40247H8.21922L8.07937 13.5514L6.34719 15.0181L6.27753 15.0771L6.2332 15.1569C6.1511 15.3047 6.10809 15.4708 6.10766 15.6394C6.10723 15.808 6.1494 15.9744 6.23074 16.1226C6.31211 16.2709 6.43024 16.3964 6.57468 16.4862C6.71919 16.576 6.88476 16.6268 7.05537 16.6327L7.06407 16.633H7.07278H19.1837C19.2385 16.633 19.293 16.6551 19.3349 16.6978C19.377 16.7408 19.4025 16.8013 19.4025 16.8664C19.4025 16.9315 19.377 16.9919 19.3349 17.0349C19.293 17.0776 19.2385 17.0997 19.1837 17.0997H7.18778H7.17517L7.16257 17.1003C6.93414 17.1119 6.70593 17.0687 6.49604 16.974C6.28765 16.8799 6.10259 16.7373 5.95596 16.5566C5.75322 16.2923 5.64561 15.9628 5.65344 15.6244C5.66118 15.2898 5.78122 14.9695 5.99127 14.7168L6.05383 14.653L7.21326 13.6864L7.46949 13.4728L7.37064 13.1542L4.07158 2.52087L3.99378 2.27014L3.74322 2.19181L1.1633 1.38526C1.16325 1.38525 1.16319 1.38523 1.16314 1.38521C1.10916 1.36824 1.0609 1.32908 1.03165 1.27275C1.0022 1.21605 0.995713 1.14863 1.01451 1.08622C1.03324 1.02404 1.07445 0.975063 1.12556 0.947427C1.15087 0.933745 1.17811 0.925516 1.20575 0.922841C1.23338 0.920167 1.26135 0.923048 1.28819 0.931461C1.28819 0.931462 1.28819 0.931463 1.2882 0.931464L4.23506 1.85546L4.23601 1.85576C4.26852 1.86588 4.29911 1.88417 4.3248 1.90998C4.35031 1.93561 4.37017 1.9679 4.3819 2.00452C4.382 2.00484 4.3821 2.00517 4.38221 2.00549L7.66608 12.6142L7.77508 12.9664H8.14372H18.925H19.3277L19.4135 12.5729L21.3326 3.7729L21.4648 3.16636H20.844H7.65389L7.50524 2.6997H21.7834C21.8137 2.70008 21.8439 2.7072 21.872 2.72098C21.9005 2.73496 21.9265 2.75563 21.9477 2.7822Z" fill="#BDBDBD" stroke="white"/>
</g>
<defs>
<clipPath id="clip0">
<rect width="23" height="22" fill="white" transform="translate(0 -0.000244141)"/>
</clipPath>
</defs>
</svg>
