<svg width="23" height="18" viewBox="0 0 23 18" fill="none" xmlns="http://www.w3.org/2000/svg">
<path d="M21.947 2.78255L21.9554 2.79256C21.9778 2.81927 21.9945 2.85158 22.0036 2.88723C22.0123 2.92167 22.0135 2.95778 22.0071 2.99281L19.7301 13.2529L19.73 13.2535C19.7179 13.3084 19.6879 13.3552 19.6477 13.3872C19.6078 13.419 19.5598 13.4346 19.5119 13.4334L19.5119 13.4333H19.4995H8.40198H8.21873L8.07888 13.5517L6.3467 15.0184L6.27704 15.0773L6.23272 15.1571C6.15061 15.3049 6.1076 15.4711 6.10717 15.6397C6.10675 15.8083 6.14891 15.9747 6.23025 16.1229C6.31162 16.2711 6.42975 16.3967 6.57419 16.4865C6.7187 16.5763 6.88427 16.627 7.05488 16.633L7.06358 16.6333H7.07229H19.1832C19.238 16.6333 19.2925 16.6554 19.3344 16.698C19.3765 16.7411 19.402 16.8015 19.402 16.8666C19.402 16.9317 19.3765 16.9921 19.3344 17.0352C19.2925 17.0779 19.238 17.0999 19.1832 17.0999H7.18729H7.17468L7.16208 17.1006C6.93365 17.1121 6.70544 17.069 6.49555 16.9742L6.28982 17.4299L6.49555 16.9742C6.28716 16.8801 6.1021 16.7375 5.95547 16.5569C5.75273 16.2925 5.64512 15.963 5.65295 15.6246C5.66069 15.29 5.78073 14.9698 5.99078 14.7171L6.05334 14.6532L7.21277 13.6867L7.469 13.4731L7.37015 13.1544L4.07109 2.52111L3.9933 2.27038L3.74273 2.19205L1.16281 1.38551C1.16276 1.38549 1.16271 1.38548 1.16266 1.38546C1.10868 1.36849 1.06041 1.32933 1.03116 1.27299C1.00171 1.21629 0.995224 1.14887 1.01402 1.08647C1.03275 1.02428 1.07396 0.975307 1.12508 0.947671C1.15038 0.93399 1.17762 0.92576 1.20526 0.923085C1.23289 0.920411 1.26086 0.923292 1.2877 0.931705C1.2877 0.931706 1.28771 0.931707 1.28771 0.931709L4.23457 1.85571L4.23552 1.856C4.26803 1.86612 4.29863 1.88441 4.32431 1.91022C4.34982 1.93585 4.36969 1.96815 4.38141 2.00478C4.38152 2.00509 4.38162 2.00541 4.38172 2.00573L7.66559 12.6145L7.7746 12.9666H8.14323H18.9245H19.3272L19.413 12.5731L21.3321 3.77314L21.4643 3.16661H20.8435H7.6534L7.50475 2.69994H21.7829C21.8132 2.70032 21.8434 2.70744 21.8715 2.72122L22.0917 2.27228L21.8715 2.72123C21.9001 2.7352 21.926 2.75587 21.9472 2.78244L21.947 2.78255Z" fill="#BDBDBD" stroke="#252B42"/>
</svg>
