<svg width="25" height="25" viewBox="0 0 25 25" fill="none" xmlns="http://www.w3.org/2000/svg">
<rect x="1" y="1" width="23" height="23" rx="4" fill="#2091F9"/>
<path fill-rule="evenodd" clip-rule="evenodd" d="M17.8539 8.64604C17.9005 8.69248 17.9374 8.74766 17.9626 8.80841C17.9878 8.86915 18.0008 8.93427 18.0008 9.00004C18.0008 9.06581 17.9878 9.13093 17.9626 9.19167C17.9374 9.25242 17.9005 9.30759 17.8539 9.35404L10.8539 16.354C10.8075 16.4006 10.7523 16.4375 10.6915 16.4628C10.6308 16.488 10.5657 16.5009 10.4999 16.5009C10.4341 16.5009 10.369 16.488 10.3083 16.4628C10.2475 16.4375 10.1923 16.4006 10.1459 16.354L6.6459 12.854C6.55201 12.7602 6.49927 12.6328 6.49927 12.5C6.49927 12.3673 6.55201 12.2399 6.6459 12.146C6.73979 12.0522 6.86712 11.9994 6.9999 11.9994C7.13267 11.9994 7.26001 12.0522 7.3539 12.146L10.4999 15.293L17.1459 8.64604C17.1923 8.59948 17.2475 8.56253 17.3083 8.53733C17.369 8.51212 17.4341 8.49915 17.4999 8.49915C17.5657 8.49915 17.6308 8.51212 17.6915 8.53733C17.7523 8.56253 17.8075 8.59948 17.8539 8.64604Z" fill="white"/>
<rect x="1" y="1" width="23" height="23" rx="4" stroke="#2091F9" stroke-width="2"/>
</svg>
