<svg width="33" height="33" viewBox="0 0 33 33" fill="none" xmlns="http://www.w3.org/2000/svg">
<path d="M31.2302 0.41748H1.77107C1.06261 0.41748 0.490234 0.989852 0.490234 1.69831V31.1574C0.490234 31.8659 1.06261 32.4383 1.77107 32.4383H31.2302C31.9386 32.4383 32.511 31.8659 32.511 31.1574V1.69831C32.511 0.989852 31.9386 0.41748 31.2302 0.41748ZM27.5318 9.76355H24.9741C22.9688 9.76355 22.5806 10.7162 22.5806 12.1171V15.2031H27.3677L26.7433 20.0342H22.5806V32.4383H17.5893V20.0382H13.4146V15.2031H17.5893V11.6408C17.5893 7.50608 20.115 5.25262 23.8054 5.25262C25.5745 5.25262 27.0915 5.3847 27.5358 5.44474V9.76355H27.5318Z" fill="white"/>
</svg>
