<svg width="32" height="32" viewBox="0 0 32 32" fill="none" xmlns="http://www.w3.org/2000/svg">
<path d="M22.4499 5.5C23.2444 5.49941 24.0309 5.65738 24.7635 5.96466C25.4962 6.27195 26.1601 6.72236 26.7164 7.28952C27.8587 8.4494 28.499 10.012 28.499 11.64C28.499 13.2681 27.8585 14.831 26.716 15.9909L26.7155 15.9913L16.3555 26.4813L15.9998 26.8416L15.644 26.4813L5.28402 15.9913L5.28357 15.9909C4.14101 14.831 3.50056 13.2681 3.50056 11.64C3.50056 10.0119 4.14101 8.44905 5.28357 7.28913C5.84009 6.72254 6.5039 6.27248 7.23625 5.96523C7.96884 5.65787 8.75532 5.49957 9.54978 5.49957C10.3442 5.49957 11.1307 5.65787 11.8633 5.96523C12.5959 6.27258 13.2599 6.72283 13.8165 7.28968L13.8174 7.2906L16.0005 9.52519L18.1702 7.31258C18.1707 7.31208 18.1712 7.31159 18.1716 7.31109C18.7263 6.73743 19.3909 6.28139 20.1257 5.97022C20.8609 5.65886 21.6514 5.49894 22.4499 5.5ZM22.4499 5.5C22.4501 5.5 22.4503 5.5 22.4505 5.5L22.4498 6L22.4494 5.5C22.4495 5.5 22.4497 5.5 22.4499 5.5ZM22.4496 4.5L22.4494 4.5C21.5215 4.49922 20.6029 4.68368 19.7473 5.04258C18.8917 5.40148 18.1164 5.92759 17.4668 6.59007L17.4649 6.59197L17.4649 6.59197L16.3549 7.71197L15.9998 8.0703L15.6446 7.71197L14.5346 6.59197L14.5333 6.59061C13.8828 5.9292 13.1071 5.4039 12.2515 5.04533C11.3959 4.68676 10.4775 4.5021 9.54978 4.5021C8.62207 4.5021 7.70365 4.68676 6.84804 5.04533C5.99246 5.4039 5.2168 5.92918 4.56629 6.59057L22.4496 4.5ZM22.4496 4.5C23.3775 4.50026 24.296 4.68523 25.1516 5.04414C26.0072 5.40305 26.7828 5.92871 27.4332 6.59047C28.7594 7.94059 29.5025 9.75746 29.5025 11.65C29.5025 13.5423 28.7596 15.3589 27.4338 16.7089C27.4335 16.7091 27.4333 16.7094 27.4331 16.7096L15.9998 28.2884M22.4496 4.5L15.9998 28.2884M15.9998 28.2884L4.56647 16.7096C4.56631 16.7095 4.56615 16.7093 4.566 16.7091C3.24002 15.3591 2.49707 13.5424 2.49707 11.65C2.49707 9.75753 3.24011 7.94071 4.56625 6.59061L15.9998 28.2884Z" stroke="white"/>
</svg>
