<svg width="22" height="17" viewBox="0 0 22 17" fill="none" xmlns="http://www.w3.org/2000/svg">
<path d="M4.63581 12.9383L4.63493 12.9374C4.611 12.9127 4.58338 12.8939 4.55407 12.8814L4.75062 12.4216L4.55407 12.8814C4.52479 12.8689 4.49395 12.8626 4.46318 12.8626C4.43241 12.8626 4.40157 12.8689 4.37229 12.8814L4.17574 12.4216L4.37229 12.8814C4.34298 12.8939 4.31536 12.9127 4.29143 12.9374L4.29114 12.9377L2.57222 14.7102L2.21221 15.0814L1.85331 14.7091L1.63551 14.4832C1.63537 14.4831 1.63523 14.4829 1.63509 14.4828C1.58686 14.4333 1.52479 14.4084 1.46332 14.4084C1.40166 14.4084 1.33941 14.4335 1.29112 14.4832C1.24235 14.5335 1.2124 14.6047 1.2124 14.682C1.2124 14.7593 1.24235 14.8306 1.29112 14.8808L2.04109 15.6535L2.04153 15.6539C2.06546 15.6786 2.09307 15.6974 2.12239 15.71C2.12239 15.71 2.1224 15.71 2.1224 15.71L1.92584 16.1697C2.01696 16.2087 2.11464 16.2287 2.21328 16.2287C2.31193 16.2287 2.40961 16.2087 2.50072 16.1697L4.63581 12.9383ZM4.63581 12.9383C4.65982 12.963 4.67964 12.9931 4.69342 13.0273L5.15722 12.8405L4.63581 12.9383ZM4.63493 0.574791L4.63581 0.575697C4.65983 0.600373 4.67964 0.630494 4.69342 0.664708L4.69342 0.664711C4.70721 0.698943 4.71449 0.73614 4.71449 0.774046C4.71449 0.811951 4.70721 0.849148 4.69342 0.883381L4.69342 0.883383C4.67964 0.917597 4.65983 0.947718 4.63581 0.972395L4.63537 0.972848L2.38547 3.29084L2.38503 3.2913C2.3611 3.31601 2.33349 3.3348 2.30417 3.34733C2.2749 3.35985 2.24406 3.36608 2.21328 3.36608C2.18251 3.36608 2.15167 3.35985 2.12239 3.34733L1.92584 3.80708L2.12239 3.34733C2.09308 3.3348 2.06546 3.31601 2.04153 3.2913L2.04109 3.29084L1.29112 2.51818L0.944509 2.85461L1.29112 2.51818C1.26709 2.49341 1.24726 2.46321 1.23347 2.42892C1.21968 2.39461 1.2124 2.35734 1.2124 2.31937C1.2124 2.2814 1.21968 2.24414 1.23347 2.20983C1.24726 2.17554 1.26709 2.14534 1.29112 2.12057L0.93234 1.77233L1.29112 2.12057C1.31513 2.09584 1.34282 2.07704 1.37221 2.0645C1.40156 2.05197 1.43247 2.04573 1.46332 2.04573C1.49416 2.04573 1.52508 2.05197 1.55443 2.0645C1.58363 2.07696 1.61116 2.09561 1.63506 2.12011C1.63521 2.12027 1.63536 2.12042 1.63551 2.12057L1.85331 2.34651L2.21221 2.7188L2.57222 2.34758L4.29114 0.575087L4.29143 0.57479C4.31536 0.550071 4.34298 0.531283 4.37229 0.518751C4.40157 0.506234 4.43241 0.5 4.46318 0.5C4.49395 0.5 4.52479 0.506234 4.55407 0.518751C4.58338 0.531283 4.611 0.55007 4.63493 0.574791ZM4.63493 6.75611L4.63581 6.75701C4.65982 6.78169 4.67964 6.81181 4.69342 6.84602L5.15722 6.65922L4.69342 6.84603C4.70721 6.88026 4.71449 6.91746 4.71449 6.95536C4.71449 6.99327 4.70721 7.03047 4.69342 7.0647L5.15722 7.2515L4.69342 7.0647C4.67964 7.09891 4.65983 7.12903 4.63581 7.15371L4.63537 7.15416L2.38547 9.47216L2.38503 9.47261C2.3611 9.49733 2.33349 9.51612 2.30417 9.52865C2.27489 9.54117 2.24405 9.5474 2.21328 9.5474C2.18251 9.5474 2.15167 9.54117 2.12239 9.52865C2.09308 9.51612 2.06546 9.49733 2.04153 9.47261L2.04109 9.47216L1.29112 8.69949C1.24235 8.64924 1.2124 8.57799 1.2124 8.50069C1.2124 8.42339 1.24235 8.35214 1.29112 8.30189L0.93234 7.95364L1.29112 8.30189C1.33941 8.25214 1.40166 8.22705 1.46332 8.22705C1.52477 8.22705 1.58683 8.25198 1.63504 8.30141C1.6352 8.30157 1.63535 8.30173 1.63551 8.30189L1.85331 8.52783L2.21221 8.90012L2.57222 8.52889L4.29114 6.7564L4.29143 6.7561C4.31536 6.73139 4.34298 6.7126 4.37229 6.70007L4.17574 6.24032L4.37229 6.70007C4.40157 6.68755 4.43241 6.68132 4.46318 6.68132C4.49395 6.68132 4.52479 6.68755 4.55407 6.70007L4.75062 6.24032L4.55407 6.70007C4.58339 6.7126 4.611 6.73139 4.63493 6.75611ZM7.21308 14.682C7.21308 14.605 7.24293 14.534 7.29152 14.4839C7.33963 14.4343 7.40164 14.4093 7.46305 14.4093H20.9624C21.0238 14.4093 21.0859 14.4343 21.134 14.4839C21.1826 14.534 21.2124 14.605 21.2124 14.682C21.2124 14.7591 21.1826 14.8301 21.134 14.8801C21.0859 14.9297 21.0238 14.9547 20.9624 14.9547H7.46305C7.40164 14.9547 7.33963 14.9297 7.29152 14.8801C7.24293 14.8301 7.21308 14.7591 7.21308 14.682ZM7.21308 8.50069C7.21308 8.42365 7.24293 8.35265 7.29152 8.30258C7.33963 8.25302 7.40164 8.22803 7.46305 8.22803H20.9624C21.0238 8.22803 21.0859 8.25302 21.134 8.30258C21.1826 8.35264 21.2124 8.42364 21.2124 8.50069C21.2124 8.57774 21.1826 8.64874 21.134 8.6988C21.0859 8.74836 21.0238 8.77335 20.9624 8.77335H7.46305C7.40164 8.77335 7.33963 8.74836 7.29152 8.6988C7.24293 8.64874 7.21308 8.57774 7.21308 8.50069ZM7.21308 2.31937C7.21308 2.24233 7.24293 2.17133 7.29152 2.12126C7.33963 2.0717 7.40164 2.04671 7.46305 2.04671H20.9624C21.0238 2.04671 21.0859 2.0717 21.134 2.12126C21.1826 2.17133 21.2124 2.24233 21.2124 2.31937C21.2124 2.39642 21.1826 2.46742 21.134 2.51749C21.0859 2.56705 21.0238 2.59204 20.9624 2.59204H7.46305C7.40164 2.59204 7.33963 2.56705 7.29152 2.51749C7.24293 2.46742 7.21308 2.39642 7.21308 2.31937Z" fill="#252B42" stroke="#252B42"/>
</svg>
