<svg width="35" height="28" viewBox="0 0 35 28" fill="none" xmlns="http://www.w3.org/2000/svg">
<path d="M34.165 4.11303C32.9402 4.64137 31.6073 5.02162 30.2344 5.16971C31.6598 4.32291 32.7272 2.98509 33.2364 1.40727C31.8988 2.20294 30.4336 2.76088 28.9056 3.05634C28.2669 2.3736 27.4945 1.82971 26.6365 1.45854C25.7785 1.08736 24.8532 0.896877 23.9183 0.898942C20.1359 0.898942 17.0939 3.96493 17.0939 7.72737C17.0939 8.25572 17.1579 8.78406 17.262 9.29239C11.5983 8.9962 6.54707 6.29044 3.18889 2.14775C2.57699 3.19289 2.25634 4.38291 2.26028 5.59399C2.26028 7.96353 3.46507 10.0529 5.30226 11.2817C4.21957 11.239 3.16224 10.9415 2.21626 10.4131V10.4972C2.21626 13.8153 4.56178 16.5651 7.68781 17.1975C7.10086 17.35 6.49706 17.428 5.89064 17.4297C5.44635 17.4297 5.02608 17.3856 4.6018 17.3256C5.46636 20.0314 7.984 21.9966 10.9819 22.0607C8.63642 23.8979 5.69851 24.9786 2.50845 24.9786C1.93607 24.9786 1.40773 24.9586 0.859375 24.8945C3.88534 26.8358 7.47567 27.9565 11.3422 27.9565C23.8943 27.9565 30.7628 17.5578 30.7628 8.5319C30.7628 8.2357 30.7628 7.93951 30.7428 7.64332C32.0716 6.67069 33.2364 5.46591 34.165 4.11303Z" fill="white"/>
</svg>
